<?xml version="1.0" encoding="UTF-8" ?>
<svg xmlns="http://www.w3.org/2000/svg" version="1.1" viewBox="0 -45 378 9" preserveAspectRatio="xMidYMid meet">
  <path d="M18-18L18 0L0 0L0-36L9-36L9-45L27-45L27-36L18-36L18-27L27-27L27-18L18-18ZM54-9L63-9L63-27L54-27L54-9ZM72-36L72 0L36 0L36-27L45-27L45-36L72-36ZM117 0L108 0L108-27L99-27L99-36L117-36L117 0ZM90-27L99-27L99 0L81 0L81-36L90-36L90-27ZM153-9L153 0L126 0L126-45L144-45L144-36L153-36L153-27L144-27L144-9L153-9ZM189-9L189 0L162 0L162-9L180-9L180-18L162-18L162-27L171-27L171-36L198-36L198-27L189-27L189-18L198-18L198-9L189-9ZM225-9L234-9L234-27L225-27L225-9ZM225 0L225 9L207 9L207-36L216-36L216-27L225-27L225-36L243-36L243 0L225 0ZM270-18L279-18L279-27L270-27L270-18ZM270-9L270 0L288 0L288 9L261 9L261 0L252 0L252-27L261-27L261-36L288-36L288-9L270-9ZM315-18L324-18L324-27L315-27L315-18ZM315-9L315 0L333 0L333 9L306 9L306 0L297 0L297-27L306-27L306-36L333-36L333-9L315-9ZM351-9L360-9L360-27L351-27L351-9ZM378-45L378 0L342 0L342-36L360-36L360-45L378-45Z"/>
</svg>