<?xml version="1.0" encoding="UTF-8" ?>
<svg xmlns="http://www.w3.org/2000/svg" version="1.1" viewBox="2.666666666666667 -53.77777777777778 280.8888888888889 16" preserveAspectRatio="xMidYMid meet">
  <path d="M25.9556-52.4444L25.9556-44.4444L21.3333-44.4444L21.3333-49.2444L21.3333-49.2444Q20-49.5111 18.6667-49.5111L18.6667-49.5111L18.6667-49.5111Q15.3778-49.5111 13.9111-47.7333L13.9111-47.7333L13.9111-47.7333Q12.4444-45.9556 12.4444-41.9556L12.4444-41.9556L12.4444-34.6667L20.4444-34.6667L20.4444-30.2222L12.4444-30.2222L12.4444-4.4444L16.8889-4.4444L16.8889 0L2.6667 0L2.6667-4.4444L7.1111-4.4444L7.1111-30.2222L2.6667-30.2222L2.6667-34.6667L7.1111-34.6667L7.1111-41.1556L7.1111-41.1556Q7.1111-47.5556 10.1778-50.6667L10.1778-50.6667L10.1778-50.6667Q13.2444-53.7778 18.5778-53.7778L18.5778-53.7778L18.5778-53.7778Q22.0444-53.7778 25.9556-52.4444L25.9556-52.4444ZM24.4444-17.1556L24.4444-17.1556L24.4444-17.1556Q24.4444-25.6000 28.5778-30.5778L28.5778-30.5778L28.5778-30.5778Q32.7111-35.5556 39.0222-35.5556L39.0222-35.5556L39.0222-35.5556Q45.3333-35.5556 49.1111-30.9333L49.1111-30.9333L49.1111-30.9333Q52.8889-26.3111 52.8889-17.9556L52.8889-17.9556L52.8889-17.9556Q52.8889-9.4222 48.8889-4.2667L48.8889-4.2667L48.8889-4.2667Q44.8889 0.8889 38.4000 0.8889L38.4000 0.8889L38.4000 0.8889Q32 0.8889 28.2222-4.0444L28.2222-4.0444L28.2222-4.0444Q24.4444-8.9778 24.4444-17.1556ZM30.0444-17.9556L30.0444-17.9556L30.0444-17.9556Q30.0444-10.9333 32.3111-7.2444L32.3111-7.2444L32.3111-7.2444Q34.5778-3.5556 38.8444-3.5556L38.8444-3.5556L38.8444-3.5556Q42.8444-3.5556 45.0667-6.9778L45.0667-6.9778L45.0667-6.9778Q47.2889-10.4000 47.2889-17.4222L47.2889-17.4222L47.2889-17.4222Q47.2889-31.1111 38.5778-31.1111L38.5778-31.1111L38.5778-31.1111Q34.4000-31.1111 32.2222-27.9556L32.2222-27.9556L32.2222-27.9556Q30.0444-24.8000 30.0444-17.9556ZM58.6667 0L58.6667-4.4444L63.1111-4.4444L63.1111-30.2222L58.6667-30.2222L58.6667-34.6667L68.0889-34.6667L68.3556-30.0444L68.4444-30.0444L68.4444-30.0444Q73.2444-35.5556 79.4667-35.5556L79.4667-35.5556L79.4667-35.5556Q83.9111-35.5556 85.9556-33.0222L85.9556-33.0222L85.9556-33.0222Q88-30.4889 88-25.8667L88-25.8667L88-4.4444L92.4444-4.4444L92.4444 0L79.1111 0L79.1111-4.4444L82.6667-4.4444L82.6667-25.1556L82.6667-25.1556Q82.6667-28.7111 81.4222-29.9111L81.4222-29.9111L81.4222-29.9111Q80.1778-31.1111 77.9556-31.1111L77.9556-31.1111L77.9556-31.1111Q72.8000-31.1111 68.4444-25.6000L68.4444-25.6000L68.4444-4.4444L72-4.4444L72 0L58.6667 0ZM107.8222 0.8889L107.8222 0.8889L107.8222 0.8889Q104.0000 0.8889 101.7778-1.1111L101.7778-1.1111L101.7778-1.1111Q99.5556-3.1111 99.5556-7.0222L99.5556-7.0222L99.5556-30.2222L95.1111-30.2222L95.1111-34.6667L99.5556-34.6667L99.5556-42.6667L104.8889-43.6444L104.8889-34.6667L112.8889-34.6667L112.8889-30.2222L104.8889-30.2222L104.8889-7.9111L104.8889-7.9111Q104.8889-5.3333 105.9111-4.4444L105.9111-4.4444L105.9111-4.4444Q106.9333-3.5556 108.6222-3.5556L108.6222-3.5556L108.6222-3.5556Q110.7556-3.5556 112.8889-4.6222L112.8889-4.6222L112.8889-0.2667L112.8889-0.2667Q110.4889 0.8889 107.8222 0.8889ZM128.3556 0.8889L128.3556 0.8889L128.3556 0.8889Q122.8444 0.8889 118.2222-1.2444L118.2222-1.2444L118.2222-8.8889L122.8444-8.8889L122.8444-4.2667L122.8444-4.2667Q125.5111-3.4667 128.7111-3.4667L128.7111-3.4667L128.7111-3.4667Q132.7111-3.4667 134.3556-4.8444L134.3556-4.8444L134.3556-4.8444Q136.0000-6.2222 136.0000-8.7111L136.0000-8.7111L136.0000-8.7111Q136.0000-11.0222 134.0444-12.4000L134.0444-12.4000L134.0444-12.4000Q132.0889-13.7778 127.9111-15.2889L127.9111-15.2889L127.9111-15.2889Q122.0444-17.4222 119.9111-19.8667L119.9111-19.8667L119.9111-19.8667Q117.7778-22.3111 117.7778-25.6000L117.7778-25.6000L117.7778-25.6000Q117.7778-29.9556 121.2444-32.7556L121.2444-32.7556L121.2444-32.7556Q124.7111-35.5556 130.1333-35.5556L130.1333-35.5556L130.1333-35.5556Q135.1111-35.5556 139.5556-33.4222L139.5556-33.4222L139.5556-25.7778L134.9333-25.7778L134.9333-30.4889L134.9333-30.4889Q132.8889-31.2889 129.8667-31.2889L129.8667-31.2889L129.8667-31.2889Q126.4889-31.2889 124.8000-29.9111L124.8000-29.9111L124.8000-29.9111Q123.1111-28.5333 123.1111-26.3111L123.1111-26.3111L123.1111-26.3111Q123.1111-24.0889 124.9333-22.8000L124.9333-22.8000L124.9333-22.8000Q126.7556-21.5111 130.6667-20.0889L130.6667-20.0889L130.6667-20.0889Q136.2667-18.1333 138.8000-15.7333L138.8000-15.7333L138.8000-15.7333Q141.3333-13.3333 141.3333-9.3333L141.3333-9.3333L141.3333-9.3333Q141.3333-4.7111 137.7778-1.9111L137.7778-1.9111L137.7778-1.9111Q134.2222 0.8889 128.3556 0.8889ZM146.2222-34.6667L155.7333-34.6667L156.0000-31.8222L156.1778-31.8222L156.1778-31.8222Q160.1778-35.5556 165.1556-35.5556L165.1556-35.5556L165.1556-35.5556Q170.8444-35.5556 174.3111-30.8889L174.3111-30.8889L174.3111-30.8889Q177.7778-26.2222 177.7778-18.5778L177.7778-18.5778L177.7778-18.5778Q177.7778-9.8667 173.5556-4.4889L173.5556-4.4889L173.5556-4.4889Q169.3333 0.8889 162.8444 0.8889L162.8444 0.8889L162.8444 0.8889Q159.4667 0.8889 156.1778-0.7111L156.1778-0.7111L156.0000-0.6222L156.0000 11.5556L161.3333 11.5556L161.3333 16L146.2222 16L146.2222 11.5556L150.6667 11.5556L150.6667-30.2222L146.2222-30.2222L146.2222-34.6667ZM156.0000-27.2889L156.0000-4.8889L156.0000-4.8889Q158.6667-3.5556 162.2222-3.5556L162.2222-3.5556L162.2222-3.5556Q166.9333-3.5556 169.5556-7.0222L169.5556-7.0222L169.5556-7.0222Q172.1778-10.4889 172.1778-17.6889L172.1778-17.6889L172.1778-17.6889Q172.1778-24.6222 169.8667-27.8667L169.8667-27.8667L169.8667-27.8667Q167.5556-31.1111 163.6444-31.1111L163.6444-31.1111L163.6444-31.1111Q159.3778-31.1111 156.0000-27.2889L156.0000-27.2889ZM209.7778-6.6667L209.7778-6.6667L209.7778-1.8667L209.7778-1.8667Q205.3333 0.8889 199.3778 0.8889L199.3778 0.8889L199.3778 0.8889Q192.3556 0.8889 188.4000-3.8222L188.4000-3.8222L188.4000-3.8222Q184.4444-8.5333 184.4444-16.9778L184.4444-16.9778L184.4444-16.9778Q184.4444-25.6889 188.6222-30.6222L188.6222-30.6222L188.6222-30.6222Q192.8000-35.5556 199.1111-35.5556L199.1111-35.5556L199.1111-35.5556Q204.2667-35.5556 207.4667-31.4667L207.4667-31.4667L207.4667-31.4667Q210.6667-27.3778 210.6667-19.8222L210.6667-19.8222L210.6667-17.0667L189.9556-17.0667L189.9556-17.0667Q190.1333-10.8444 192.4000-7.3778L192.4000-7.3778L192.4000-7.3778Q194.6667-3.9111 199.6444-3.7333L199.6444-3.7333L199.6444-3.7333Q205.1556-3.7333 209.7778-6.6667ZM190.0444-21.3333L205.3333-21.3333L205.3333-21.3333Q205.3333-26.4000 203.4667-28.7556L203.4667-28.7556L203.4667-28.7556Q201.6000-31.1111 198.2222-31.1111L198.2222-31.1111L198.2222-31.1111Q194.9333-31.1111 192.7111-28.6667L192.7111-28.6667L192.7111-28.6667Q190.4889-26.2222 190.0444-21.3333L190.0444-21.3333ZM241.7778-6.6667L241.7778-6.6667L241.7778-1.8667L241.7778-1.8667Q237.3333 0.8889 231.3778 0.8889L231.3778 0.8889L231.3778 0.8889Q224.3556 0.8889 220.4000-3.8222L220.4000-3.8222L220.4000-3.8222Q216.4444-8.5333 216.4444-16.9778L216.4444-16.9778L216.4444-16.9778Q216.4444-25.6889 220.6222-30.6222L220.6222-30.6222L220.6222-30.6222Q224.8000-35.5556 231.1111-35.5556L231.1111-35.5556L231.1111-35.5556Q236.2667-35.5556 239.4667-31.4667L239.4667-31.4667L239.4667-31.4667Q242.6667-27.3778 242.6667-19.8222L242.6667-19.8222L242.6667-17.0667L221.9556-17.0667L221.9556-17.0667Q222.1333-10.8444 224.4000-7.3778L224.4000-7.3778L224.4000-7.3778Q226.6667-3.9111 231.6444-3.7333L231.6444-3.7333L231.6444-3.7333Q237.1556-3.7333 241.7778-6.6667ZM222.0444-21.3333L237.3333-21.3333L237.3333-21.3333Q237.3333-26.4000 235.4667-28.7556L235.4667-28.7556L235.4667-28.7556Q233.6000-31.1111 230.2222-31.1111L230.2222-31.1111L230.2222-31.1111Q226.9333-31.1111 224.7111-28.6667L224.7111-28.6667L224.7111-28.6667Q222.4889-26.2222 222.0444-21.3333L222.0444-21.3333ZM271.1111-48.8889L265.7778-48.8889L265.7778-53.3333L276.4444-53.3333L276.4444-4.4444L280.8889-4.4444L280.8889 0L271.3778 0L271.1111-3.0222L270.9333-3.1111L270.9333-3.1111Q267.2000 0.8889 262.0444 0.8889L262.0444 0.8889L262.0444 0.8889Q256.0000 0.8889 252.4444-4L252.4444-4L252.4444-4Q248.8889-8.8889 248.8889-16.8000L248.8889-16.8000L248.8889-16.8000Q248.8889-25.1556 253.1556-30.3556L253.1556-30.3556L253.1556-30.3556Q257.4222-35.5556 264.1778-35.5556L264.1778-35.5556L264.1778-35.5556Q267.5556-35.5556 270.9333-33.9556L270.9333-33.9556L271.1111-34.0444L271.1111-48.8889ZM271.1111-7.1111L271.1111-29.8667L271.1111-29.8667Q267.8222-31.1111 264.4444-31.1111L264.4444-31.1111L264.4444-31.1111Q259.3778-31.1111 256.9333-27.7778L256.9333-27.7778L256.9333-27.7778Q254.4889-24.4444 254.4889-17.4222L254.4889-17.4222L254.4889-17.4222Q254.4889-10.6667 256.6667-7.1111L256.6667-7.1111L256.6667-7.1111Q258.8444-3.5556 263.3778-3.5556L263.3778-3.5556L263.3778-3.5556Q267.8222-3.5556 271.1111-7.1111L271.1111-7.1111Z"/>
</svg>